# xmcd
#
# Track frame offsets:
#	150
#	17878
#	35349
#	57000
#	73692
#	91595
#	113557
#	133912
#	153566
#	173650
#	194631
#	206711
#	228240
#	242481
#	259928
#	280617
#	292918
#	316613
#
# Disc length: 4523 seconds
# Revision: 2
# Processed by: cddbd v1.5.2PL0 Copyright (c) Steve Scherf et al.
# Submitted via: dBpowerAMP V12.0
#
DISCID=f211a912
DTITLE=Rolf Wikström - Allt Är Gjort Av Plåt Samlat 1989-2001
DYEAR=2002
DGENRE=Blues
TTITLE0=Allt Är Gjort Av Plåt
TTITLE1=Jag Tror du Ljuger Nu
TTITLE2=Mississippi
TTITLE3=En Listen Konstnär
TTITLE4=Mitt Hjärta Är Ditt
TTITLE5=Himlen Är Blå
TTITLE6=Nog Står Jag Ut Med Livet
TTITLE7=Blues Är Allt Jag Har
TTITLE8=Kom Till Mig Kvinna
TTITLE9=Behöver Nån Att Älska
TTITLE10=Över Tusen Hav
TTITLE11=En Ökenblomma
TTITLE12=Starka Band
TTITLE13=Haderian Hadera
TTITLE14=Sofias Sång
TTITLE15=Om du Går Neråt Staden
TTITLE16=Herdinna, Herdinna
TTITLE17=Allting Förändras
EXTD=
EXTT0=
EXTT1=
EXTT2=
EXTT3=
EXTT4=
EXTT5=
EXTT6=
EXTT7=
EXTT8=
EXTT9=
EXTT10=
EXTT11=
EXTT12=
EXTT13=
EXTT14=
EXTT15=
EXTT16=
EXTT17=
PLAYORDER=
